<svg xmlns="http://www.w3.org/2000/svg" viewBox="0 0 1741.21 787"><defs><style>.cls-1{fill:#f2da63;}.cls-2{fill:#7ec199;}.cls-3{fill:#e28481;}.cls-4{fill:#f4a6a2;}.cls-5{fill:#023059;}.cls-6{fill:#17486d;}.cls-7{fill:#d36363;}.cls-8{fill:none;}.cls-9{fill:#a0d9b9;}.cls-10{fill:#dd9292;}.cls-11{fill:#d36c6c;}.cls-12{fill:#b54d4d;}.cls-13{fill:#79ba93;}.cls-14{fill:#bf3434;}.cls-15{fill:#fff;}</style></defs><title>communication</title><g id="developer_bg" data-name="developer bg"><rect class="cls-1" width="1750.16" height="810.73"/></g><g id="designer"><path class="cls-2" d="M1362.12,413.64c14.43-5.3,27.41-3.89,23.86-37.18,0,0,0,10.75,13.17,18.59s39.41-7.1,41.8-2.62,16.72-.29,9.55,32c0,0,19.11-20.3,26.28,14.33l4.78,24s15.53-26.37,16.72-14.43-1.19,15.53-6,21.5c0,0,100.33-127.8,54.94-312.92,0,0,2,45.62-5.71,58.16,0,0,2.21-38.4-8.11-47.41s-17.33-25.22-19.17-29.65c0,0,0,13.27-3.32,23.23s-3.69,14.38-4.79,20.65c0,0-4.06-51.25-57.15-101.76,0,0,17.33,20.28,16.59,30.6,0,0-44.61-36.13-66-44.24s-30.6-8.85-41.29-15.85c0,0,25.11,19.17,27.67,25.81,0,0-35.78-20.28-66-22.49s-81.11-.74-94.38-15.48c0,0,2.21,24.33,42.4,30.23,0,0-78.9-1.47-104.34-30.23,0,0,1.84,24.7,15.85,36.5,0,0-33.18-17-45-36.5,0,0,6.27,33.92,16.59,43.14,0,0-52.35-30.23-57.51-55.67,0,0-4.79,22.12-2.21,36.87,0,0-28-14.75-29.86-36.87,0,0-24,111,122,146.37S1240.09,458.47,1362.12,413.64Z"/><path class="cls-3" d="M1266.06,207.3c21-3.75,27.76,9,21,32.25s-15.21,45,2.52,44.25l17.73-.75s-3.75,44.25,12.75,38.25,26.44.17,17,60.09c0,0,11.94-60.91-2.39-81.22,0,0-7.17,10.75-15.53,6s3.83-45.39-4.78-40.61c-10.75,6-20.3,13.55-21.5-.39s13.14-77.24,22.69-83.21c0,0,2.39-14.33-11.94-14.33s-108.73,3.79-118.28-1-29.41,5.78-31.8,15.34c-.62,2.48-3.24,9.39-6.83,18.5C1198.29,202.56,1250,210.16,1266.06,207.3Z"/><path class="cls-4" d="M1337,381.4c9.47-59.91-.47-66.09-17-60.09s-12.75-38.25-12.75-38.25l-17.73.75c-17.73.75-9.27-21-2.52-44.25s0-36-21-32.25c-16,2.86-67.76-4.74-119.37-6.86-10.23,26-28.27,70.06-29.76,80.39-1.62,11.21,21.84,39.65,11.1,50.4s-28.09,39.45-34.64,45.23c-4.48,4-4.78,12.1,4.78,19.26s25.08,11.94,17.92,20.3-13.14,10.75-13.14,10.75l9.92,15.19s3.32,5.88,9.22,5c31.88-4.74,57.3-26.17,57.3-26.17s16.72,49.24-50.16,68.22c0,0-14.33,4.64-10.75,14.2a61.81,61.81,0,0,0,8.36,15.53s15.53-9.55,13.14,8.36-6,38.22,1.19,44.19,28.8,19.11,40.08,11.94,128.3-62,141.47-68.08c9.81-4.55,28.66-8.09,32.25-26.14,3-15,17.49-63.67,20.95-83.16C1368,381.65,1337,381.4,1337,381.4Z"/><path class="cls-4" d="M1375.9,405.87c.71-4,1-6.74.55-7.75-2.39-6-31.05-20.3-39.41-16.72C1337,381.4,1368,381.65,1375.9,405.87Z"/><path class="cls-3" d="M1501.67,564.28s-32.54-86.78-28.71-97.63,22.33-33.18,22.33-33.18l-35.1-79.76-111.67,5.1L1320.45,445,1170.5,577s-6,8.28,7.25,7.71,62.94-27.5,75.07-13.46,37,71.47,37,76.57S1488.91,581.51,1501.67,564.28Z"/><path class="cls-1" d="M1140.24,262.42c-1.1-9.68,9.56-8.68,14.06-8.36s24.05,4.18,28.47,1.87,38.66,17.49,40.7,23.15-6.39,8.41-6.39,8.41-4-5.89-15.78-8.54-42,7.16-49.45,2.29S1141.65,274.73,1140.24,262.42Z"/><path class="cls-5" d="M1533.9,626.54c-1.53-8.26-14-54.13-20.53-58.79s-8.4-4.67-20.53,0-194.78,74.45-208.52,77.36c-14.38,3-9.25,8.33-13,18.6s-5.28,12.31-5.28,20.71,14.93,2.8,23.33,0,180.12-59.72,198.78-57.86S1536,637.91,1533.9,626.54Z"/><ellipse class="cls-5" cx="1163.68" cy="313.72" rx="6.82" ry="12.88"/><path class="cls-6" d="M1525.5,622c-23.33-6.53-84-9.29-209,38.31-113.29,43.12-108.57,83.14-108.81,98.73h398.27C1594.75,729,1547.39,628.09,1525.5,622Z"/><path class="cls-7" d="M1380.62,297.82c6.49-8.65,23-9.37,47,13.1-5.59-23-21.64-38-32.25-35.83-11.94,2.39-23.89-2.39-28.66,13.14s-22.37,65.07-21.5,75.25a54,54,0,0,0,1.35,12.46C1343.15,353.71,1373.72,307,1380.62,297.82Z"/><path class="cls-4" d="M1468.42,310.93c.7,2.89-.4-3.47,0,0Z"/><path class="cls-4" d="M1353.62,383.87c-.88-10.17,16.72-59.72,21.5-75.25s16.72-10.75,28.66-13.14a21.89,21.89,0,0,1,4.86-.41c-13.19-7.07-27-6.77-36.3,5.75-8.17,11-23.35,43.32-25.77,75.1,1.16,4.94,3.32,10.19,7.28,13.41A49.45,49.45,0,0,1,1353.62,383.87Z"/><path class="cls-4" d="M1373.88,389.76c29.86-13.14,57.33-47.77,53.75-78.83a67.13,67.13,0,0,0-19-15.85,21.89,21.89,0,0,0-4.86.41c-11.94,2.39-23.89-2.39-28.66,13.14s-22.37,65.07-21.5,75.25a49.45,49.45,0,0,0,.23,5.48C1358.1,392.8,1364.44,393.91,1373.88,389.76Z"/><path class="cls-8" d="M1468.42,310.93c.7,2.89-.4-3.47,0,0Z"/><path class="cls-7" d="M1373.88,389.76c-9.32,4.44-15.78,3-20-.41,1,10.33,5.69,30.81,28.43,20.8,17.32-7.62,44.72-38.19,54.84-55.38l-23,1.07C1401.47,372.78,1391.13,381.54,1373.88,389.76Z"/><path class="cls-3" d="M1096.88,392.95s27.92-2.73,30.15,4-3.35,16.08-8.38,12.52S1096.88,397.86,1096.88,392.95Z"/></g><g id="developer"><path class="cls-5" d="M569.38,170.58C587.65,177.65,538.74,73,432.61,53.8,88.88-8.42,106.69,288.12,124,333c17.83,46.2,88.37,116.74,108,147.7,0,0,37.3-26.57,28.28-88.66s-22.75-143.79,124.8-96c0,0,28.94,21.34,49-38S510.24,147.71,569.38,170.58Z"/><path class="cls-5" d="M102.43,286.45s-13.14,55.9,1.32,75.21,73,59,82.86,138.43-102.92,218-69.8,253.53c0,0-23.29,20.14-42.81-52.92S-59.17,343.37,102.43,286.45Z"/><ellipse class="cls-9" cx="110.23" cy="299.38" rx="20.76" ry="31.66" transform="translate(-73.22 38.38) rotate(-14.89)"/><path class="cls-10" d="M609.18,372.21c-27.5-19.24-23.89-54.31-22.46-64.39s7.47-23.16,9.6-63.25c1.41-26.57-13.14-53.37-23.12-68.43-6.43,2.71-15.27-4.58-25-11.89-1.88-1.41-51.56-25.52-73.55-9.81-58.88,42.06-17,180.08-119.17,124.9q-6.69-1.68-13-2.87c-17,46.17-3.22,156.65,12.63,190.16C368.9,495.7,465.49,527.53,513,542.74c13.8,4.42,23.48,7.44,25.76,8.59,6.95,3.47,12.46,13.13,7.6,19.2a17.78,17.78,0,0,0,6.09-1.92c14.94-8.36,5.35-31.92,4-40s-.6-10,7.55-10.45,27.51-10.74-15.1-24.53c-33.65-15.38-34.67-41.72-38.55-62.53,46.95,33.94,71,33,81,32.37s9.69-4.81,12-11.31-3.31-9.79-5.73-19.77,17.61-22.77,23.67-27.68C633.58,394.77,620.76,380.31,609.18,372.21Z"/><path class="cls-11" d="M538.77,551.33c-2.28-1.14-12-4.17-25.76-8.59-47.52-15.22-144.11-47-157.86-76.13-15.84-33.5-29.67-144-12.63-190.16-159.09-30.2-126.74,162-121.84,171.43,5.64,10.87,16.2,58.07,17,71.64S194,623.89,194,623.89s189.44,129.41,210,62.78,50.58-141.75,77.41-132.73c11,3.69,30.43,11.88,47.06,15.32,6.68,1.38,12.89,2,17.92,1.25C551.23,564.45,545.72,554.8,538.77,551.33Z"/><path class="cls-12" d="M340.46,387.24c-3.8-19.18-10.12-62.91-3.81-69.46,2.93-3,2.75-14.7-3-26.27-7.07-9.65-19.39-17.91-39.07-17.78-43.76.28-35.49,110.4,27.9,120.71,7.82,1.27,14.94,2.74,18.66.1A30.19,30.19,0,0,0,340.46,387.24Z"/><path class="cls-10" d="M361.58,379c-3.89-19.63-10.35-64.39-3.9-71.1,3-3.12,2.81-15-3.07-26.89-7.24-9.88-19.84-18.33-40-18.2-44.79.28-36.33,113,28.56,123.55,8,1.3,15.29,2.8,19.1.1A30.9,30.9,0,0,0,361.58,379Z"/><path class="cls-11" d="M341.88,384.73C278.49,374.42,270.22,264.3,314,264c19.68-.12,31.27,6.73,38.34,16.38-6.6-13.29-19.8-25.07-44.79-25-46.75.16-37.54,124,30.21,135.8,11.88,2.07,22.24,4.58,22.8-6.39C356.82,387.47,349.71,386,341.88,384.73Z"/><path class="cls-5" d="M514.31,262.95s54.43-30.87,62.09-4.76c3.25,11.09-2,8.93-4.3,5.89S569.55,249.56,514.31,262.95Z"/><ellipse class="cls-5" cx="554.46" cy="313.17" rx="5.45" ry="13.05" transform="translate(-17.78 33.81) rotate(-3.44)"/><path class="cls-11" d="M569,170c-2.85-3.93-4.74-6.18-4.74-6.18-51.05-24.32-81-21.25-99.48-5.65-26.87,22.69-29.46,71.9-37.34,102-13.3,50.76-58.75,22.68-67,20.45-1.66-.45-8.87-3.38-10.5-3.79C379,302,422.86,313,436.23,266.54c22.39-77.78,20.51-95.85,39.51-107.1a39.08,39.08,0,0,1,6.89-3.19c21.26-7.54,44.38,1.38,59.25,10.7,2.32,1.46,4.45,2.92,6.34,4.34,9.72,7.3,18.56,7.56,25,4.85C571.66,173.79,570.23,171.75,569,170Z"/><path class="cls-11" d="M625.72,399c.48-3.45-.82-6.8-4-5.84-3,.91-7.51,2.31-14.38,4.44-21,6.52-24.48,13.18-16.48,24.91,4,5.85,12.37-1.45,20.74-9.6C617.36,407.36,625.24,402.49,625.72,399Z"/><path class="cls-13" d="M474.63,737.08c-9.39-14.09-16-48.76-70.65-50.42-56.76-1.72-204.35-74.41-204.35-74.41A332.9,332.9,0,0,0,142.2,758H497.62C486.4,749,477.84,741.89,474.63,737.08Z"/><path class="cls-14" d="M583.3,286H363.14c3.9,3,6.94,7.45,9.42,9.87l204.88,3.26Z"/><ellipse class="cls-9" cx="583.7" cy="316.65" rx="10.57" ry="42.24"/></g><g id="chat"><ellipse class="cls-15" cx="856.77" cy="300.23" rx="201.77" ry="177.93"/><path class="cls-15" d="M687.43,388s4.49,33-54.9,61.75c0,0,76.76-3.92,96.73-28.62S687.43,388,687.43,388Z"/><path class="cls-15" d="M1026,402.24s-4.49,33,54.9,61.75c0,0-76.76-3.92-96.73-28.62S1026,402.24,1026,402.24Z"/><rect class="cls-2" x="783.45" y="190.14" width="131.59" height="22.37"/><rect class="cls-2" x="783.45" y="230.84" width="96.06" height="22.37"/><rect class="cls-2" x="783.45" y="271.44" width="117.78" height="22.37"/><rect class="cls-2" x="783.45" y="307.86" width="162.05" height="22.37"/><rect class="cls-2" x="783.45" y="345.76" width="96.06" height="22.37"/><rect class="cls-2" x="783.45" y="382.89" width="117.78" height="22.37"/></g></svg>