<svg xmlns="http://www.w3.org/2000/svg" viewBox="0 0 2388.83 1080"><defs><style>.cls-1{fill:#023059;}.cls-2{fill:#f2da63;}.cls-3{fill:#1b5375;}.cls-4{fill:#897627;}.cls-5{fill:#f4e9bd;}.cls-6{fill:#bf3434;}.cls-7{fill:#cecece;}.cls-8{fill:#a5a5a5;}.cls-9{fill:#911717;}.cls-10{fill:#841414;}.cls-11{fill:#d3d3d3;}.cls-12{fill:#fff;}.cls-13{fill:#a0d9b9;}.cls-14{fill:#6ecc94;}.cls-15{fill:#d3eddc;}.cls-16,.cls-18,.cls-22{fill:#f16559;}.cls-17{fill:#c64a4a;}.cls-18{opacity:0.65;}.cls-19{fill:#f2f2f2;}.cls-20{fill:#bae2ca;}.cls-21{fill:#ad2323;}.cls-22{fill-opacity:0.35;}</style></defs><title>rocket</title><g id="rocket_bg" data-name="rocket bg"><rect class="cls-1" x="-12.18" y="-10.67" width="2418.16" height="1119.85"/><polygon class="cls-2" points="2049.16 820.18 2059.28 830.35 2073.39 827.76 2066.86 840.53 2073.68 853.16 2059.51 850.89 2049.61 861.27 2047.39 847.1 2034.46 840.89 2047.25 834.4 2049.16 820.18"/><circle class="cls-2" cx="1973.44" cy="911.43" r="4.62"/><circle class="cls-2" cx="1785.02" cy="914.26" r="2.84"/><polygon class="cls-2" points="2200.97 473.16 2205.02 481.37 2214.08 482.69 2207.52 489.08 2209.07 498.1 2200.97 493.84 2192.86 498.1 2194.41 489.08 2187.86 482.69 2196.92 481.37 2200.97 473.16"/><polygon class="cls-2" points="2224.41 198.12 2231.54 205.28 2241.49 203.46 2236.88 212.46 2241.68 221.36 2231.7 219.76 2224.73 227.07 2223.16 217.09 2214.05 212.72 2223.07 208.14 2224.41 198.12"/><polygon class="cls-2" points="2335.98 616.19 2339.38 627.39 2350.53 630.94 2340.94 637.63 2341.01 649.33 2331.68 642.27 2320.57 645.96 2324.4 634.9 2317.46 625.48 2329.16 625.7 2335.98 616.19"/><circle class="cls-2" cx="2213.95" cy="530.63" r="4.62"/><circle class="cls-2" cx="2209.33" cy="380.36" r="4.62"/><circle class="cls-2" cx="2149.37" cy="712.55" r="4.61"/><circle class="cls-2" cx="2021.26" cy="480.48" r="5.57"/><polygon class="cls-2" points="1355.16 178.18 1365.28 188.34 1379.39 185.76 1372.86 198.53 1379.68 211.16 1365.51 208.89 1355.61 219.27 1353.39 205.1 1340.46 198.89 1353.25 192.4 1355.16 178.18"/><polygon class="cls-2" points="1160.16 332.18 1170.28 342.35 1184.39 339.76 1177.86 352.53 1184.68 365.16 1170.51 362.89 1160.61 373.27 1158.39 359.1 1145.46 352.89 1158.25 346.4 1160.16 332.18"/><circle class="cls-2" cx="1218.53" cy="183.51" r="5.32"/><circle class="cls-2" cx="1380.88" cy="283.67" r="3.36"/><circle class="cls-2" cx="1722.36" cy="25.03" r="7.09"/><circle class="cls-2" cx="1576.2" cy="76.32" r="4.17"/><circle class="cls-2" cx="921.18" cy="146.95" r="4.72"/><polygon class="cls-2" points="931.16 717.18 941.28 727.35 955.39 724.76 948.86 737.53 955.68 750.16 941.51 747.89 931.61 758.27 929.39 744.1 916.46 737.89 929.25 731.4 931.16 717.18"/><polygon class="cls-2" points="620.16 833.18 630.28 843.35 644.39 840.76 637.86 853.53 644.68 866.16 630.51 863.89 620.61 874.27 618.39 860.1 605.46 853.89 618.25 847.4 620.16 833.18"/><circle class="cls-2" cx="794.53" cy="722.51" r="5.32"/><circle class="cls-2" cx="956.88" cy="822.67" r="3.36"/><circle class="cls-2" cx="542.81" cy="678.39" r="5.66"/><polygon class="cls-2" points="594.16 126.18 604.28 136.34 618.39 133.76 611.86 146.53 618.68 159.16 604.51 156.89 594.61 167.27 592.39 153.1 579.46 146.89 592.25 140.4 594.16 126.18"/><circle class="cls-2" cx="506.16" cy="522.96" r="7.66"/><circle class="cls-2" cx="676.67" cy="350.53" r="6.21"/><circle class="cls-2" cx="323" cy="481.03" r="6.12"/><circle class="cls-2" cx="88.89" cy="100.37" r="6.12"/><circle class="cls-2" cx="196.53" cy="654.94" r="5.24"/><circle class="cls-2" cx="1564.73" cy="863.67" r="5.66"/><circle class="cls-2" cx="1528.09" cy="708.24" r="7.66"/><circle class="cls-2" cx="1344.93" cy="666.31" r="6.12"/><circle class="cls-2" cx="1218.45" cy="840.22" r="5.24"/><circle class="cls-2" cx="246.35" cy="829.17" r="10.63"/><circle class="cls-2" cx="944.8" cy="433.22" r="8.73"/><circle class="cls-2" cx="1439.9" cy="436.36" r="4.72" transform="translate(113.19 1145.97) rotate(-45)"/><circle class="cls-2" cx="1410.96" cy="923.2" r="6.21" transform="translate(-239.54 1268.1) rotate(-45)"/><circle class="cls-2" cx="1659.02" cy="622.08" r="8.73" transform="translate(46.04 1355.31) rotate(-45)"/><circle class="cls-2" cx="1757.51" cy="185.15" r="4.72" transform="translate(383.84 1296.98) rotate(-45)"/><circle class="cls-2" cx="1728.56" cy="442" r="6.21" transform="translate(193.75 1351.74) rotate(-45)"/><circle class="cls-2" cx="1976.63" cy="370.88" r="8.73" transform="translate(316.69 1506.31) rotate(-45)"/><circle class="cls-2" cx="1302.02" cy="1002.26" r="2.84"/><circle class="cls-2" cx="1081.73" cy="951.67" r="5.66"/><circle class="cls-2" cx="824.01" cy="1012.62" r="5.32" transform="translate(-474.69 879.25) rotate(-45)"/><circle class="cls-2" cx="442.51" cy="882.2" r="3.36" transform="translate(-494.2 571.3) rotate(-45)"/><circle class="cls-2" cx="1920.05" cy="715.91" r="5.66" transform="translate(56.15 1567.36) rotate(-45)"/><circle class="cls-2" cx="1263" cy="727.03" r="6.12"/><circle class="cls-2" cx="184.69" cy="221.63" r="5.68"/><circle class="cls-2" cx="275.77" cy="128.28" r="4.55" transform="translate(18.71 290.85) rotate(-57.26)"/><circle class="cls-2" cx="514.63" cy="340.11" r="3.86"/><circle class="cls-2" cx="364.3" cy="238.15" r="3" transform="translate(-33.05 415.76) rotate(-57.26)"/></g><g id="rocket"><path class="cls-2" d="M484.91,88.12a182.66,182.66,0,0,1,86.62,13A183.49,183.49,0,1,0,347.67,370.45,183.51,183.51,0,0,1,484.91,88.12Z"/><path class="cls-3" d="M600.14,183.89a182.66,182.66,0,0,0-28.61-82.79A183.51,183.51,0,0,0,347.67,370.45,183.51,183.51,0,0,0,600.14,183.89Z"/><path class="cls-4" d="M308.57,203.94c2.2-5,7-8,11.66-7.74-.26-.14-.52-.27-.79-.39-5.63-2.48-12.33.36-15,6.34s-.19,12.82,5.44,15.3c.27.12.55.22.82.32C307.4,214.47,306.37,209,308.57,203.94Z"/><path class="cls-2" d="M308.57,203.94c-2.2,5-1.17,10.53,2.18,13.82,5.45,1.87,11.63-1,14.13-6.65s.41-12.16-4.65-14.91C315.53,196,310.77,198.94,308.57,203.94Z"/><path class="cls-4" d="M281.4,105.15a10.3,10.3,0,0,1,10.78-5.8c-.26-.13-.52-.26-.79-.38-5.61-2.47-11.9-.5-14.06,4.39s.65,10.86,6.27,13.33c.27.12.54.22.82.32A10.3,10.3,0,0,1,281.4,105.15Z"/><path class="cls-2" d="M281.4,105.15a10.3,10.3,0,0,0,3,11.86c5.39,1.94,11.19-.06,13.24-4.72s-.4-10.28-5.48-12.94A10.3,10.3,0,0,0,281.4,105.15Z"/><path class="cls-4" d="M282.95,163.27c3.11-7.08,9.17-11.58,14.88-11.64-.3-.17-.61-.33-.93-.47-6.66-2.93-15.06,1.55-18.77,10s-1.32,17.66,5.33,20.59c.32.14.65.26,1,.37C280.62,177.86,279.84,170.35,282.95,163.27Z"/><path class="cls-2" d="M282.95,163.27c-3.11,7.08-2.33,14.59,1.48,18.83,6.48,2.11,14.27-2.32,17.8-10.36s1.54-16.77-4.4-20.12C292.12,151.69,286.06,156.19,282.95,163.27Z"/><path class="cls-4" d="M366.56,61.27c4.09-4.54,10-6.24,14.51-4.63-.2-.22-.41-.43-.63-.63-4.64-4.19-12.37-3.19-17.25,2.22s-5.07,13.2-.43,17.39c.22.2.46.39.69.57C361.38,71.81,362.47,65.81,366.56,61.27Z"/><path class="cls-2" d="M366.56,61.27c-4.09,4.54-5.17,10.54-3.1,14.92,4.69,3.51,11.91,2.36,16.55-2.79s5-12.45,1.06-16.75C376.51,55,370.65,56.73,366.56,61.27Z"/><path class="cls-4" d="M442.74,64.88C450,62,457.64,63.38,461.9,67.74c-.1-.36-.22-.71-.36-1.07-2.86-7.31-12.2-10.48-20.88-7.09s-13.39,12.06-10.54,19.37c.14.35.29.69.46,1C430.76,73.89,435.47,67.72,442.74,64.88Z"/><path class="cls-2" d="M442.74,64.88c-7.27,2.84-12,9-12.14,15.09,3.3,6.57,12.16,9.29,20.41,6.07s12.92-11.24,10.89-18.3C457.64,63.38,450,62,442.74,64.88Z"/><path class="cls-4" d="M332,123.48c4.46-4.07,10.35-5.22,14.63-3.25-.17-.23-.36-.45-.55-.67-4.09-4.48-11.72-4.18-17,.67s-6.32,12.43-2.23,16.91c.2.22.4.42.62.61C325.87,133.31,327.56,127.55,332,123.48Z"/><path class="cls-2" d="M332,123.48c-4.46,4.07-6.14,9.83-4.58,14.27,4.2,3.83,11.36,3.34,16.42-1.28s6.21-11.7,2.79-16.24C342.37,118.27,336.48,119.41,332,123.48Z"/><path class="cls-4" d="M287.77,310.73c-2.47-5.51-1.73-11.46,1.48-14.91-.27.09-.54.2-.81.32-5.54,2.49-7.63,9.83-4.68,16.4s9.83,9.89,15.37,7.4c.27-.12.52-.25.77-.4C295.19,319.63,290.24,316.23,287.77,310.73Z"/><path class="cls-2" d="M287.77,310.73c2.47,5.51,7.42,8.9,12.13,8.81,4.95-2.8,6.72-9.75,3.91-16s-9.18-9.55-14.56-7.71C286,299.27,285.3,305.22,287.77,310.73Z"/><path class="cls-4" d="M254.27,226.75c.19-5.26,3.06-9.63,6.9-11.1-.25,0-.5-.06-.75-.07-5.29-.19-9.75,4.75-10,11s3.88,11.52,9.17,11.7c.25,0,.51,0,.76,0C256.64,236.57,254.08,232,254.27,226.75Z"/><path class="cls-2" d="M254.27,226.75c-.19,5.26,2.38,9.82,6.1,11.56,4.95-.28,9-5,9.22-11s-3.5-11-8.42-11.64C257.33,217.12,254.45,221.49,254.27,226.75Z"/><path class="cls-2" d="M1321,945.06c-82,82-328.15,205.4-328.15,205.4s123.45-246.19,205.4-328.15,175.88-120.92,209.77-87S1403,863.1,1321,945.06Z"/><path class="cls-2" d="M1267.13,853.24c-67.07,41.55-249.43,85-249.43,85s120.14-143.92,187.21-185.46,135.37-52.74,152.56-25S1334.2,811.69,1267.13,853.24Z"/><path class="cls-2" d="M1398.63,904.71C1368.35,956,1258.32,1047,1258.32,1047s26.54-140.3,56.82-191.58,73.52-81.82,96.58-68.2S1428.91,853.43,1398.63,904.71Z"/><path class="cls-5" d="M1344.11,868.45c-43.38,43.38-173.67,108.71-173.67,108.71s65.33-130.3,108.71-173.67,93.08-64,111-46.06S1387.49,825.07,1344.11,868.45Z"/><path class="cls-5" d="M1315.59,819.85c-35.5,22-132,45-132,45s63.58-76.17,99.08-98.15,71.64-27.91,80.74-13.23S1351.08,797.86,1315.59,819.85Z"/><path class="cls-5" d="M1385.18,847.09c-16,27.14-74.26,75.3-74.26,75.3S1325,848.14,1341,821s38.91-43.3,51.11-36.1S1401.21,820,1385.18,847.09Z"/><path class="cls-6" d="M1944.6,194.28c-39.1-39.1-55.85-86.7-40-110.36-82.44,19.1-186.34,64.36-285.76,167q-9.41,9.72-18.39,19.38c.59-.12,1.18-.24,1.78-.33,3,36.81,43,101,104.2,162.17,61.36,61.36,125.77,101.47,162.52,104.22-.1.68-.22,1.34-.35,2q9.63-9,19.33-18.35c102.64-99.41,147.89-203.3,167-285.75C2031.27,250.12,1983.7,233.38,1944.6,194.28Z"/><path class="cls-7" d="M1360.42,703.36A90.29,90.29,0,0,0,1327,714.82c-15,28.09-6.87,58.54,15.88,81.29s53.19,30.84,81.29,15.88a90.29,90.29,0,0,0,11.45-33.41c-18.67,0-36.85-8.59-51.74-23.48S1360.39,722,1360.42,703.36Z"/><path class="cls-8" d="M1417.67,721.33c-14.89-14.89-35.86-20.71-57.26-18,0,18.67,8.59,36.85,23.48,51.74s33.08,23.5,51.74,23.48C1438.39,757.19,1432.56,736.22,1417.67,721.33Z"/><path class="cls-9" d="M1445.58,524.46s-44.05-13.67-87.61,13.37-72.53,99.57-72.53,99.57-42.9-170.86,84.67-236.17,184.6-5.21,184.6-5.21,5.31,3.29.8,10.48c-3.13,5-96.44,117.14-96.44,117.14S1454.38,528.9,1445.58,524.46Z"/><path class="cls-10" d="M1614.46,693.33s13.67,44.05-13.37,87.61-99.57,72.53-99.57,72.53,170.86,42.9,236.17-84.67,5.21-184.6,5.21-184.6-3.29-5.31-10.48-.8c-5,3.13-117.14,96.44-117.14,96.44S1610,684.54,1614.46,693.33Z"/><path class="cls-11" d="M1884.36,254.55A59.58,59.58,0,1,0,1885.6,340,61.34,61.34,0,0,0,1884.36,254.55Z"/><path class="cls-12" d="M1818.49,321.42a43.19,43.19,0,0,1-4.69-55.5A43.18,43.18,0,1,0,1874,326.11,43.19,43.19,0,0,1,1818.49,321.42Z"/><path class="cls-13" d="M1876,262.91a46,46,0,1,0,5,59A45.93,45.93,0,0,0,1876,262.91Z"/><path class="cls-14" d="M1865.29,273.6a45,45,0,0,1,5.06,58.72,46.62,46.62,0,0,0,6-5,45.07,45.07,0,0,0,0-64.6,47.21,47.21,0,0,0-65.86,0,46.16,46.16,0,0,0-5.06,5.89A47.25,47.25,0,0,1,1865.29,273.6Z"/><path class="cls-6" d="M1675.8,463.12c-63.66-63.66-102.18-132.24-97.51-168.39C1421.4,471.76,1369.1,626.29,1358.76,661a5.15,5.15,0,0,0-.76.62c-8,8,12.16,41.11,45,74s66,53,74,45c.08-.08.14-.17.21-.26,33.27-9.83,188.67-61.77,366.92-219.73C1807.94,565.24,1739.41,526.73,1675.8,463.12Z"/><path class="cls-15" d="M1824.3,315.92a36,36,0,0,1-4.06-47,37.4,37.4,0,0,0-4.82,4,36,36,0,0,0,0,51.72,38,38,0,0,0,52.86,0,37,37,0,0,0,4.06-4.71A38,38,0,0,1,1824.3,315.92Z"/><path class="cls-6" d="M1999.28,139.6C1975.7,116,1966.51,87,1978.75,74.72a16.76,16.76,0,0,1,3.35-2.58c-10.41.75-21.62,1.9-33.53,3.58a16.74,16.74,0,0,0-3.13,2.45c-14.2,14.2.09,51.52,31.92,83.35s69.15,46.12,83.35,31.92a16.73,16.73,0,0,0,2.42-3.09c1.68-11.9,2.83-23.11,3.58-33.53a16.76,16.76,0,0,1-2.55,3.31C2051.92,172.38,2022.87,163.19,1999.28,139.6Z"/><path class="cls-13" d="M2064.53,74.33s-22.25-4.09-59.27-3.28l.29.08a10.61,10.61,0,0,0-5.78,2.86c-8,8,.05,29.12,18,47.1s39.08,26.06,47.1,18a10.61,10.61,0,0,0,2.86-5.78l.05.2C2068.62,96.56,2064.53,74.33,2064.53,74.33Z"/><path class="cls-16" d="M1706.46,432.15C1645.29,371,1605.24,306.79,1602.26,270c-.61.09-1.2.21-1.78.33q-11.43,12.27-22.19,24.42c-4.67,36.15,33.86,104.73,97.51,168.39s132.14,102.12,168.31,97.52q12.19-10.8,24.51-22.27c.13-.66.25-1.32.35-2C1832.22,533.62,1767.82,493.52,1706.46,432.15Z"/><path class="cls-16" d="M1977.36,161.52c-31.83-31.83-46.12-69.15-31.92-83.35a16.74,16.74,0,0,1,3.13-2.45c-13.78,1.95-28.49,4.61-43.95,8.19-15.87,23.67.87,71.26,40,110.36s86.67,55.84,110.34,40c3.58-15.45,6.24-30.15,8.19-43.92a16.73,16.73,0,0,1-2.42,3.09C2046.51,207.64,2009.19,193.35,1977.36,161.52Z"/><path class="cls-16" d="M2064.84,139.3c-8.05,8-29.11-.15-47-18.21s-25.92-39.17-17.87-47.17a10.61,10.61,0,0,1,5.79-2.84l-.29-.08c-7.18.13-14.91.45-23.15,1a16.76,16.76,0,0,0-3.36,2.56c-12.29,12.2-3.2,41.28,20.3,65s52.52,33,64.81,20.76a16.76,16.76,0,0,0,2.56-3.3c.63-8.28,1-16.06,1.18-23.27l-.05-.2A10.61,10.61,0,0,1,2064.84,139.3Z"/><path class="cls-17" d="M1364.53,651.37s-57.51,3.29-103.42,54.06-61.72,148.48-61.72,148.48S1100.81,672.46,1239,540s224.12-87,224.12-87,7.37,1.53,3.8,11.93c-2.48,7.22-86.19,179.55-86.19,179.55S1376.48,652.73,1364.53,651.37Z"/><path class="cls-18" d="M1252.33,578c100.2-106.48,169.06-80.94,181.8-74.79,3.24-8.06,5.31-13.36,5.62-14.46,2.69-9.5-3.49-11.14-3.49-11.14s-72.64-44.6-183.94,73.66C1204.82,601.72,1193.42,661.76,1196,714,1198.23,668.72,1212.75,620,1252.33,578Z"/><path class="cls-19" d="M1886.9,254.13a62.43,62.43,0,0,0-86.76,0c-.43.42-.83.85-1.24,1.27,24-22.15,62.22-12.79,83.09,5.77,17.47,15.54,26.31,55.38,3.61,78.84.44-.4.88-.79,1.3-1.21A58.86,58.86,0,0,0,1886.9,254.13Z"/><ellipse class="cls-20" cx="2033.04" cy="106.59" rx="14.78" ry="40.18" transform="translate(520.1 1468.8) rotate(-45)"/><path class="cls-17" d="M1480.88,805a169.35,169.35,0,0,1-47.39,72.78C1382.71,923.72,1285,939.54,1285,939.54s181.45,98.57,313.9-39.65c39.73-41.47,63.45-78.22,77.2-109.36C1601.06,801.1,1522.56,804.42,1480.88,805Z"/><path class="cls-21" d="M1685.9,675.76s-1.53-7.37-11.93-3.8c-7.22,2.48-179.55,86.19-179.55,86.19s-8.23,4.3-6.87,16.25c0,0-.64,11.17-5.7,27.59l198-20.48C1706.33,714.38,1685.9,675.76,1685.9,675.76Z"/><path class="cls-17" d="M1679.87,781.5l-198,20.48q-.46,1.5-1,3.06c41.68-.61,120.19-3.93,195.22-14.51Q1678.12,785.93,1679.87,781.5Z"/><path class="cls-22" d="M1398.51,658.52s194.79-491.28,532.13-551.94c0,0,25.23-14.59-28.32,21.66S1641.12,272.4,1435.3,619C1386.82,700.63,1398.51,658.52,1398.51,658.52Z"/></g></svg>