<?xml version="1.0" encoding="UTF-8" standalone="no"?>
<svg width="600px" height="290px" viewBox="0 0 420 203" version="1.1" xmlns="http://www.w3.org/2000/svg" xmlns:xlink="http://www.w3.org/1999/xlink">
    <!-- Generator: Sketch 39.1 (31720) - http://www.bohemiancoding.com/sketch -->
    <title>UX lifecycle</title>
    <desc>Created with Sketch.</desc>
    <defs>
        <linearGradient x1="3.03663478%" y1="50%" x2="14.7328878%" y2="50%" id="linearGradient-1">
            <stop stop-color="#F4CFC9" stop-opacity="0.0434499547" offset="0%"></stop>
            <stop stop-color="#E5A199" offset="100%"></stop>
        </linearGradient>
        <path d="M373.239625,145.453377 C365.65052,155.924263 353.321237,162.734966 339.408012,162.734966 L336.339194,162.734966 L336.339194,145.453377 L373.239625,145.453377 Z" id="path-2"></path>
        <filter x="-50%" y="-50%" width="200%" height="200%" filterUnits="objectBoundingBox" id="filter-3">
            <feOffset dx="0" dy="2" in="SourceAlpha" result="shadowOffsetOuter1"></feOffset>
            <feGaussianBlur stdDeviation="1.5" in="shadowOffsetOuter1" result="shadowBlurOuter1"></feGaussianBlur>
            <feColorMatrix values="0 0 0 0 0   0 0 0 0 0   0 0 0 0 0  0 0 0 0.5 0" type="matrix" in="shadowBlurOuter1"></feColorMatrix>
        </filter>
    </defs>
    <g id="Page-1" stroke="none" stroke-width="1" fill="none" fill-rule="evenodd">
        <g id="Overview" transform="translate(-96.000000, -206.000000)">
            <g id="UX-lifecycle" transform="translate(96.000000, 202.000000)">
                <text id="Discovery" font-family="SourceSansPro-Regular, Source Sans Pro" font-size="11.52" font-weight="normal" letter-spacing="-0.273599991" fill="#151515">
                    <tspan x="31.6438356" y="183.095827">Discover</tspan>
                    <tspan x="70.4547157" y="183.095827">y</tspan>
                </text>
                <text id="Ideation" font-family="SourceSansPro-Regular, Source Sans Pro" font-size="11.52" font-weight="normal" letter-spacing="-0.273599991" fill="#151515">
                    <tspan x="111.472603" y="183.095827">Ideatio</tspan>
                    <tspan x="143.403163" y="183.095827">n</tspan>
                </text>
                <text id="Design" font-family="SourceSansPro-Regular, Source Sans Pro" font-size="11.52" font-weight="normal" letter-spacing="-0.273599991" fill="#151515">
                    <tspan x="184.828767" y="183.095827">Desig</tspan>
                    <tspan x="209.726367" y="183.095827">n</tspan>
                </text>
                <text id="Development" font-family="SourceSansPro-Regular, Source Sans Pro" font-size="11.52" font-weight="normal" letter-spacing="-0.273599991" fill="#151515">
                    <tspan x="251.712329" y="183.095827">Developmen</tspan>
                    <tspan x="310.020809" y="183.095827">t</tspan>
                </text>
                <text id="Analysis" font-family="SourceSansPro-Regular, Source Sans Pro" font-size="11.52" font-weight="normal" letter-spacing="-0.273599991" fill="#151515">
                    <tspan x="348.80137" y="183.095827">Analysi</tspan>
                    <tspan x="381.33097" y="183.095827">s</tspan>
                </text>
                <path d="M391.952055,145.453377 L0,145.453377 L0,164.895165 L391.952055,164.895165 L391.952055,174.976092 L420,154.814238 L391.952055,134.652383 L391.952055,145.453377 Z" id="Combined-Shape-Copy-4" fill="url(#linearGradient-1)"></path>
                <path d="M281.917808,97.9290061 L116.506849,97.9290061 L116.506849,101.529337 L114.401938,97.9290061 L114.349315,97.9290061 L114.349315,97.8389978 L107.876712,86.7679797 L114.349315,75.6969615 L114.349315,75.6069532 L114.401938,75.6069532 L116.506849,72.0066221 L116.506849,75.6069532 L281.917808,75.6069532 L281.917808,72.0066221 L284.02272,75.6069532 L284.075342,75.6069532 L284.075342,75.6969615 L290.547945,86.7679797 L284.075342,97.8389978 L284.075342,97.9290061 L284.02272,97.9290061 L281.917808,101.529337 L281.917808,97.9290061 Z" id="Combined-Shape" fill="#F3DDDB"></path>
                <text id="The-UX-Lifecycle" font-family="SourceSansPro-Black, Source Sans Pro" font-size="17.28" font-weight="700" letter-spacing="-0.511199963" fill="#151515">
                    <tspan x="133.047945" y="17">The UX Lifecycl</tspan>
                    <tspan x="243.056746" y="17">e</tspan>
                </text>
                <g id="Combined-Shape">
                    <use fill="black" fill-opacity="1" filter="url(#filter-3)" xlink:href="#path-2"></use>
                    <use fill="#E5A198" fill-rule="evenodd" xlink:href="#path-2"></use>
                </g>
                <text id="VALIDATION" font-family="SourceSansPro-Regular, Source Sans Pro" font-size="11.52" font-weight="normal" letter-spacing="-0.273599991" fill="#151515">
                    <tspan x="178.356164" y="90.2072843">VALIDATION</tspan>
                </text>
                <path d="M195.782059,36.0033111 L205.862986,25.922384 L339.394759,25.922384 C362.463485,25.922384 381.164384,44.6287806 381.164384,67.6894481 L381.164384,123.128101 C381.164384,146.195413 362.474015,164.895165 339.394759,164.895165 L77.009351,164.895165 C53.9406241,164.895165 35.239726,146.188768 35.239726,123.128101 L35.239726,67.6894481 C35.239726,44.6221355 53.9300944,25.922384 77.009351,25.922384 L199.760558,25.922384 L189.750117,35.9328248 L189.820603,36.0033111 L189.750117,36.0737973 L200.480624,46.8043044 L82.0136841,46.8043044 C69.2926788,46.8043044 58.9726027,57.118393 58.9726027,69.8414662 L58.9726027,120.976082 C58.9726027,133.702215 69.2884462,144.013244 82.0136841,144.013244 L335.109604,144.013244 C347.830609,144.013244 358.150685,133.699156 358.150685,120.976082 L358.150685,69.8414662 C358.150685,57.1153333 347.834841,46.8043044 335.109604,46.8043044 L206.583052,46.8043044 L195.782059,36.0033111 Z" id="Combined-Shape" fill="#E5A198"></path>
                <g id="cycle" transform="translate(105.719178, 108.729999)" fill="#F0351E">
                    <path d="M61.8185494,27.2817358 C61.9658124,28.5075302 62.0415889,29.755313 62.0415889,31.0207944 C62.0415889,48.1531061 48.1531061,62.0415889 31.0207944,62.0415889 C13.8884827,62.0415889 -2.84217094e-14,48.1531061 -2.84217094e-14,31.0207944 C-2.84217094e-14,13.8884827 13.8884827,0 31.0207944,0 C40.0607666,0 48.1975882,3.86684762 53.8674457,10.0367295 L42.3802109,7.35210094 L43.0748034,17.0801529 C39.8759569,14.4190003 35.763468,12.8185101 31.2771646,12.8185101 C21.0827312,12.8185101 12.8185101,21.0827312 12.8185101,31.2771646 C12.8185101,41.471598 21.0827312,49.7358192 31.2771646,49.7358192 C40.9074119,49.7358192 48.8151809,42.3610128 49.6609578,32.9509138 L43.9767652,35.6014964 L48.7540312,11.875456 L70,23.4666627 L61.8185494,27.2817358 Z" id="Combined-Shape"></path>
                </g>
                <g id="cycle" transform="translate(181.232877, 108.729999)" fill="#F0351E">
                    <path d="M61.8185494,27.2817358 C61.9658124,28.5075302 62.0415889,29.755313 62.0415889,31.0207944 C62.0415889,48.1531061 48.1531061,62.0415889 31.0207944,62.0415889 C13.8884827,62.0415889 -2.84217094e-14,48.1531061 -2.84217094e-14,31.0207944 C-2.84217094e-14,13.8884827 13.8884827,0 31.0207944,0 C40.0607666,0 48.1975882,3.86684762 53.8674457,10.0367295 L42.3802109,7.35210094 L43.0748034,17.0801529 C39.8759569,14.4190003 35.763468,12.8185101 31.2771646,12.8185101 C21.0827312,12.8185101 12.8185101,21.0827312 12.8185101,31.2771646 C12.8185101,41.471598 21.0827312,49.7358192 31.2771646,49.7358192 C40.9074119,49.7358192 48.8151809,42.3610128 49.6609578,32.9509138 L43.9767652,35.6014964 L48.7540312,11.875456 L70,23.4666627 L61.8185494,27.2817358 Z" id="Combined-Shape"></path>
                </g>
                <g id="cycle" transform="translate(256.746575, 108.729999)" fill="#F0351E">
                    <path d="M61.8185494,27.2817358 C61.9658124,28.5075302 62.0415889,29.755313 62.0415889,31.0207944 C62.0415889,48.1531061 48.1531061,62.0415889 31.0207944,62.0415889 C13.8884827,62.0415889 -2.84217094e-14,48.1531061 -2.84217094e-14,31.0207944 C-2.84217094e-14,13.8884827 13.8884827,0 31.0207944,0 C40.0607666,0 48.1975882,3.86684762 53.8674457,10.0367295 L42.3802109,7.35210094 L43.0748034,17.0801529 C39.8759569,14.4190003 35.763468,12.8185101 31.2771646,12.8185101 C21.0827312,12.8185101 12.8185101,21.0827312 12.8185101,31.2771646 C12.8185101,41.471598 21.0827312,49.7358192 31.2771646,49.7358192 C40.9074119,49.7358192 48.8151809,42.3610128 49.6609578,32.9509138 L43.9767652,35.6014964 L48.7540312,11.875456 L70,23.4666627 L61.8185494,27.2817358 Z" id="Combined-Shape"></path>
                </g>
                <text id="MY-SWEET-SPOT" font-family="SourceSansPro-Bold, Source Sans Pro" font-size="11.52" font-weight="bold" letter-spacing="-0.273599991" fill="#F0351E">
                    <tspan x="171.883562" y="204.697814">MY SWEET SPOT</tspan>
                </text>
                <path d="M95.2910959,21.8994566 L95.2910959,202.761204" id="Line" stroke="#F0351E" stroke-width="0.72" stroke-linecap="square" stroke-dasharray="2.880000042915345,2.880000042915345"></path>
                <path d="M323.270548,21.8994566 L323.270548,202.761204" id="Line-Copy" stroke="#F0351E" stroke-width="0.72" stroke-linecap="square" stroke-dasharray="2.880000042915345,2.880000042915345"></path>
                <path d="M318.274485,203.058674 L254.589041,203.058674 L254.589041,200.178409 L318.172138,200.178409 L316.611602,198.617873 L318.648257,196.581218 L323.733614,201.666575 L323.730474,201.669715 L323.733614,201.672856 L318.648257,206.758213 L316.611602,204.721558 L318.274485,203.058674 Z" id="Combined-Shape" fill="#D8D8D8"></path>
                <path d="M160.055307,203.058674 L96.369863,203.058674 L96.369863,200.178409 L159.95296,200.178409 L158.392424,198.617873 L160.429079,196.581218 L165.514436,201.666575 L165.511296,201.669715 L165.514436,201.672856 L160.429079,206.758213 L158.392424,204.721558 L160.055307,203.058674 Z" id="Combined-Shape-Copy" fill="#D8D8D8" transform="translate(130.941521, 201.669715) rotate(-180.000000) translate(-130.941521, -201.669715) "></path>
            </g>
        </g>
    </g>
</svg>